<?xml version="1.0" encoding="utf-8"?>
<!-- Generator: Adobe Illustrator 19.0.0, SVG Export Plug-In . SVG Version: 6.00 Build 0)  -->
<svg version="1.1" id="Capa_1" xmlns="http://www.w3.org/2000/svg" xmlns:xlink="http://www.w3.org/1999/xlink" x="0px" y="0px"
	 viewBox="-410 287.8 20.5 20.5" style="enable-background:new -410 287.8 20.5 20.5;" xml:space="preserve">
<style type="text/css">
	.st0{fill:#231916;}
</style>
<path class="st0" d="M-396.1,308.3h-9.6c-1.1,0-1.9-0.9-1.9-1.9v-13c0-1.1,0.9-1.9,1.9-1.9h9.6c1.1,0,1.9,0.9,1.9,1.9v13
	C-394.1,307.4-395,308.3-396.1,308.3z M-405.6,292.9c-0.3,0-0.5,0.2-0.5,0.5v13c0,0.3,0.2,0.5,0.5,0.5h9.6c0.3,0,0.5-0.2,0.5-0.5
	v-13c0-0.3-0.2-0.5-0.5-0.5H-405.6z"/>
<path class="st0" d="M-393.5,305.3h-2.1v-1.5h2.1c0.8,0,1.5-0.7,1.5-1.5v-2.5c0-0.8-0.7-1.5-1.5-1.5h-2.1v-1.5h2.1c1.6,0,3,1.3,3,3
	v2.5C-390.5,304-391.9,305.3-393.5,305.3z"/>
<path class="st0" d="M-403.8,304.6c-0.3,0-0.5-0.2-0.5-0.5v-7.9c0-0.3,0.2-0.5,0.5-0.5s0.5,0.2,0.5,0.5v7.9
	C-403.3,304.4-403.5,304.6-403.8,304.6z"/>
<path class="st0" d="M-400.8,304.6c-0.3,0-0.5-0.2-0.5-0.5v-7.9c0-0.3,0.2-0.5,0.5-0.5s0.5,0.2,0.5,0.5v7.9
	C-400.3,304.4-400.5,304.6-400.8,304.6z"/>
<path class="st0" d="M-397.8,304.6c-0.3,0-0.5-0.2-0.5-0.5v-7.9c0-0.3,0.2-0.5,0.5-0.5s0.5,0.2,0.5,0.5v7.9
	C-397.3,304.4-397.5,304.6-397.8,304.6z"/>
</svg>
