<?xml version="1.0" encoding="utf-8"?>
<!-- Generator: Adobe Illustrator 19.0.0, SVG Export Plug-In . SVG Version: 6.00 Build 0)  -->
<svg version="1.1" id="Capa_1" xmlns="http://www.w3.org/2000/svg" xmlns:xlink="http://www.w3.org/1999/xlink" x="0px" y="0px"
	 viewBox="-410 287.8 20.5 20.5" style="enable-background:new -410 287.8 20.5 20.5;" xml:space="preserve">
<style type="text/css">
	.st0{fill:#EF9600;}
	.st1{fill:#231916;}
	.st2{fill:#FFFFFF;}
	.st3{fill:none;stroke:#231916;stroke-linecap:round;stroke-linejoin:round;stroke-miterlimit:10;}
</style>
<path class="st0" d="M-394.8,307h-10c-0.2,0-0.3-0.1-0.3-0.3v-11.6h10.6v11.6C-394.5,306.9-394.6,307-394.8,307z"/>
<path class="st1" d="M-395.1,308.3h-9.6c-1.1,0-1.9-0.9-1.9-1.9v-13c0-1.1,0.9-1.9,1.9-1.9h9.6c1.1,0,1.9,0.9,1.9,1.9v13
	C-393.1,307.4-394,308.3-395.1,308.3z M-404.6,292.9c-0.3,0-0.5,0.2-0.5,0.5v13c0,0.3,0.2,0.5,0.5,0.5h9.6c0.3,0,0.5-0.2,0.5-0.5
	v-13c0-0.3-0.2-0.5-0.5-0.5H-404.6z"/>
<path class="st1" d="M-392.5,305.3h-1.1v-1.5h1.1c0.8,0,1.5-0.7,1.5-1.5v-2.5c0-0.8-0.7-1.5-1.5-1.5h-1.1v-1.5h1.1c1.6,0,3,1.3,3,3
	v2.5C-389.5,304-390.9,305.3-392.5,305.3z"/>
<g>
	<path class="st2" d="M-394.2,292.4c-0.3-1.4-1.5-2.4-3-2.4c-0.4,0-0.8,0.1-1.1,0.2c-0.6-0.9-1.7-1.5-2.8-1.5
		c-1.7,0-3.1,1.2-3.4,2.8c-1,0.3-1.7,1.2-1.7,2.3c0,1.4,1.1,2.4,2.4,2.4c0.3,0,0.6-0.1,0.9-0.2c0.4,0.6,1.1,0.9,1.8,0.9
		c0.7,0,1.3-0.3,1.7-0.8c0.5,0.6,1.2,1,2.1,1c0.6,0,1.2-0.2,1.6-0.6c0.2,0.1,0.4,0.1,0.6,0.1c1.3,0,2.3-1,2.3-2.3
		C-392.9,293.6-393.4,292.8-394.2,292.4z"/>
	<path class="st1" d="M-397.4,297.8c-0.8,0-1.5-0.3-2.1-0.7c-1.1,0.7-2.7,0.6-3.7-0.3c-2,0.4-3.8-1.1-3.8-3.1c0-1.2,0.7-2.3,1.8-2.9
		c0.5-1.7,2.2-3,4-3c1.2,0,2.3,0.5,3.1,1.4c1.9-0.5,3.9,0.7,4.5,2.5c0.9,0.5,1.5,1.5,1.5,2.6c0,1.8-1.6,3.3-3.5,3
		C-396.2,297.6-396.8,297.8-397.4,297.8z M-399.5,294.9l0.5,0.7c0.6,0.8,1.8,0.9,2.7,0.3l0.3-0.2l0.4,0.1c0.2,0,0.3,0.1,0.4,0.1
		c0.9,0,1.6-0.7,1.6-1.6c0-0.6-0.4-1.2-0.9-1.4l-0.3-0.1l-0.1-0.4c-0.3-1.4-1.8-2.2-3.2-1.6l-0.5,0.2l-0.3-0.5
		c-0.5-0.7-1.3-1.2-2.2-1.2c-1.3,0-2.4,0.9-2.7,2.2l-0.1,0.4l-0.4,0.1c-0.7,0.2-1.2,0.9-1.2,1.6c0,1.2,1.2,2,2.3,1.6l0.5-0.2
		l0.3,0.5c0.6,0.8,1.7,0.8,2.4,0.1L-399.5,294.9z"/>
</g>
<line class="st3" x1="-402.8" y1="296.3" x2="-402.8" y2="304.1"/>
<line class="st3" x1="-399.8" y1="296.3" x2="-399.8" y2="304.1"/>
<line class="st3" x1="-396.8" y1="297.5" x2="-396.8" y2="304.1"/>
</svg>
